# Blender v2.78 (sub 0) OBJ File: 'Border.blend'
# www.blender.org
o Cube
v 1.000000 -0.007500 -0.562500
v 1.000000 0.007500 -0.562500
v 1.000000 0.007500 -0.542500
v 1.000000 -0.007500 -0.542500
v 0.980000 0.007500 0.542500
v 0.980000 -0.007500 0.562500
v 0.980000 0.007500 0.562500
v -0.980000 -0.007500 0.542500
v -0.980000 0.007500 0.542500
v -0.980000 0.007500 0.562500
v 0.980000 -0.007500 0.542500
v 1.000000 -0.007500 0.542500
v 1.000000 -0.007500 0.562500
v 1.000000 0.007500 0.542500
v 1.000000 0.007500 0.562500
v -0.980000 -0.007500 0.562500
v -1.000000 -0.007500 0.562500
v -1.000000 -0.007500 0.542500
v -1.000000 0.007500 0.562500
v -1.000000 0.007500 0.542500
v -1.000000 0.007500 -0.542500
v -0.980000 -0.007500 -0.542500
v 0.980000 -0.007500 -0.542500
v 0.980000 0.007500 -0.542500
v 0.980000 -0.007500 -0.562500
v 0.980000 0.007500 -0.562500
v -0.980000 -0.007500 -0.562500
v -1.000000 -0.007500 -0.542500
v -1.000000 -0.007500 -0.562500
v -0.980000 0.007500 -0.562500
v -0.980000 0.007500 -0.542500
v -1.000000 0.007500 -0.562500
vt 0.0000 0.0000
vt 0.0000 0.0000
vt 0.0000 0.0000
vt 0.0000 0.0000
vt 0.0000 0.0000
vt 0.0000 0.0000
vt 0.0000 0.0000
vt 0.0000 0.0000
vt 0.0000 0.0000
vt 0.0000 0.0000
vt 0.0000 0.0000
vt 0.0000 0.0000
vt 0.0000 0.0000
vt 0.0000 0.0000
vt 0.0000 0.0000
vt 0.0000 0.0000
vt 0.0000 0.0000
vt 0.0000 0.0000
vt 0.0000 0.0000
vt 0.0000 0.0000
vt 0.0000 0.0000
vt 0.0000 0.0000
vt 0.0000 0.0000
vt 0.0000 0.0000
vt 0.0000 0.0000
vt 0.0000 0.0000
vt 0.0000 0.0000
vt 0.0000 0.0000
vt 0.0000 0.0000
vt 0.0000 0.0000
vt 0.0000 0.0000
vt 0.0000 0.0000
vn -0.0000 1.0000 0.0000
vn -0.0000 0.0000 -1.0000
vn 1.0000 0.0000 0.0000
vn -1.0000 0.0000 -0.0000
vn 0.0000 0.0000 1.0000
s off
f 3/1/1 26/2/1 24/3/1
f 26/2/2 1/4/2 25/5/2
f 2/6/3 4/7/3 1/4/3
f 4/7/3 14/8/3 12/9/3
f 5/10/4 23/11/4 11/12/4
f 14/8/1 24/3/1 5/10/1
f 7/13/5 16/14/5 6/15/5
f 9/16/2 11/12/2 8/17/2
f 7/13/1 9/16/1 10/18/1
f 7/13/1 14/8/1 5/10/1
f 14/8/3 13/19/3 12/9/3
f 7/13/5 13/19/5 15/20/5
f 20/21/1 10/18/1 9/16/1
f 10/18/5 17/22/5 16/14/5
f 19/23/4 18/24/4 17/22/4
f 18/24/4 21/25/4 28/26/4
f 31/27/3 8/17/3 22/28/3
f 21/25/1 9/16/1 31/27/1
f 30/29/2 25/5/2 27/30/2
f 24/3/5 22/28/5 23/11/5
f 30/29/1 24/3/1 26/2/1
f 32/31/1 31/27/1 30/29/1
f 21/25/4 29/32/4 28/26/4
f 27/30/2 32/31/2 30/29/2
f 3/1/1 2/6/1 26/2/1
f 26/2/2 2/6/2 1/4/2
f 2/6/3 3/1/3 4/7/3
f 4/7/3 3/1/3 14/8/3
f 5/10/4 24/3/4 23/11/4
f 14/8/1 3/1/1 24/3/1
f 7/13/5 10/18/5 16/14/5
f 9/16/2 5/10/2 11/12/2
f 7/13/1 5/10/1 9/16/1
f 7/13/1 15/20/1 14/8/1
f 14/8/3 15/20/3 13/19/3
f 7/13/5 6/15/5 13/19/5
f 20/21/1 19/23/1 10/18/1
f 10/18/5 19/23/5 17/22/5
f 19/23/4 20/21/4 18/24/4
f 18/24/4 20/21/4 21/25/4
f 31/27/3 9/16/3 8/17/3
f 21/25/1 20/21/1 9/16/1
f 30/29/2 26/2/2 25/5/2
f 24/3/5 31/27/5 22/28/5
f 30/29/1 31/27/1 24/3/1
f 32/31/1 21/25/1 31/27/1
f 21/25/4 32/31/4 29/32/4
f 27/30/2 29/32/2 32/31/2
